<svg width="512" height="512" xmlns="http://www.w3.org/2000/svg">

 <g>
  <title>background</title>
  <rect fill="none" id="canvas_background" height="402" width="582" y="-1" x="-1"/>
 </g>
 <g>
  <title>Layer 1</title>
  <circle id="svg_1" fill="#7AA5DA" r="256" cy="256" cx="255"/>
  <path stroke="null" id="svg_2" fill="#5786B5" d="m511.924,250.077l-113.641,-113.452l-185.108,225.63l133.284,133.284c96.738,-36.551 165.541,-130.004 165.541,-239.539c0,-1.981 -0.031,-3.955 -0.076,-5.923z"/>
  <path id="svg_3" fill="#FFFFFF" d="m383.717,133.52c10.206,-3.982 20.756,4.948 18.515,15.67l-45.77,218.781c-2.138,10.257 -14.188,14.877 -22.635,8.671l-69.094,-50.717l-35.219,35.961c-6.189,6.31 -16.86,3.741 -19.515,-4.672l-25.41,-80.662l-68.112,-20.118c-8.947,-2.638 -9.464,-15.084 -0.793,-18.48l268.033,-104.434zm-33.599,48.545c2.982,-2.638 -0.483,-7.292 -3.862,-5.189l-147.015,91.177c-2.586,1.603 -3.775,4.758 -2.862,7.671l20.049,88.04c0.397,1.345 2.327,1.155 2.5,-0.241l4.482,-67.094c0.172,-1.655 0.965,-3.172 2.207,-4.275l124.501,-110.089z"/>
  <path id="svg_4" fill="#9EC2E5" d="m346.257,176.876c3.379,-2.103 6.844,2.551 3.862,5.189l-124.5,110.089c-1.241,1.103 -2.034,2.62 -2.207,4.275l-4.482,67.094c-0.172,1.396 -2.103,1.586 -2.5,0.241l-20.049,-88.04c-0.914,-2.913 0.276,-6.068 2.862,-7.671l147.014,-91.177z"/>
  <path id="svg_5" fill="#FFFFFF" d="m217.154,364.678c-3.241,-1.155 -5.982,-3.741 -7.154,-7.465l-25.41,-80.662l-68.112,-20.118c-8.947,-2.638 -9.464,-15.084 -0.793,-18.48l268.032,-104.433c6.585,-2.569 13.326,0.241 16.653,5.448c-0.621,-0.948 -1.362,-1.827 -2.189,-2.603l-181.838,148.445l0,6.499l-1,-0.724l1,40.926l0,32.823c0.259,0.121 0.534,0.224 0.81,0.31l0,0.034l0.001,0z"/>
  <g id="svg_6">
   <path id="svg_7" fill="#D1D1D1" d="m402.525,145.518c0.052,1.172 -0.034,2.413 -0.293,3.672l-45.77,218.781c-2.138,10.257 -14.188,14.877 -22.635,8.671l-69.094,-50.717l-48.39,-34.616l0,-6.499l181.838,-148.446c0.827,0.776 1.569,1.655 2.189,2.603c0.121,0.207 0.241,0.396 0.362,0.586c0.103,0.207 0.224,0.414 0.328,0.603c0.103,0.207 0.207,0.414 0.293,0.621c0.103,0.224 0.19,0.431 0.276,0.655c0.069,0.19 0.155,0.396 0.224,0.621c0.224,0.672 0.396,1.362 0.517,2.086c0.069,0.448 0.121,0.897 0.155,1.379z"/>
   <path id="svg_8" fill="#D1D1D1" d="m264.733,325.925l-35.219,35.961c-0.293,0.293 -0.603,0.586 -0.914,0.845c-0.31,0.259 -0.621,0.483 -0.948,0.707c-0.017,0.017 -0.017,0.017 -0.017,0.017c-0.655,0.431 -1.327,0.793 -2.034,1.086c-0.362,0.138 -0.707,0.276 -1.069,0.362c-1.5,0.448 -3.034,0.569 -4.551,0.414c-0.396,-0.034 -0.793,-0.103 -1.172,-0.172c-0.052,0 -0.103,-0.017 -0.155,-0.034c-0.379,-0.103 -0.759,-0.207 -1.138,-0.328c-0.121,-0.034 -0.241,-0.069 -0.362,-0.138l-0.81,-33.133l0,-40.202l48.389,34.615z"/>
  </g>
  <g id="svg_9">
   <path id="svg_10" fill="#DADDE0" d="m228.6,362.73c-0.31,0.259 -0.621,0.5 -0.948,0.724l0,-0.017c0.328,-0.224 0.638,-0.448 0.948,-0.707z"/>
   <path id="svg_11" fill="#DADDE0" d="m227.652,363.437l0,0.017c0,0 0,-0.017 -0.017,0c0,0 0,0 0.017,-0.017z"/>
   <path id="svg_12" fill="#DADDE0" d="m225.601,364.541c0.707,-0.293 1.379,-0.655 2.034,-1.086c-0.655,0.43 -1.345,0.792 -2.034,1.086z"/>
   <path id="svg_13" fill="#DADDE0" d="m219.981,365.316c1.517,0.155 3.051,0.034 4.551,-0.414c-1.086,0.345 -2.207,0.5 -3.327,0.5c-0.345,0 -0.69,-0.017 -1.017,-0.052c-0.069,0.001 -0.138,0.001 -0.207,-0.034z"/>
  </g>
  <g id="svg_14">
   <path id="svg_15" fill="#FFFFFF" d="m221.205,365.402c-0.345,0 -0.69,-0.017 -1.017,-0.052c0.327,0.035 0.672,0.052 1.017,0.052z"/>
   <path id="svg_16" fill="#FFFFFF" d="m219.981,365.316c0.069,0.034 0.138,0.034 0.207,0.034c-0.362,-0.017 -0.69,-0.069 -1.034,-0.138c0.275,0.053 0.551,0.087 0.827,0.104z"/>
  </g>
  <g id="svg_17">
   <path id="svg_18" fill="#DADDE0" d="m219.981,365.316c-0.276,-0.017 -0.552,-0.052 -0.827,-0.103c-0.121,-0.017 -0.241,-0.034 -0.345,-0.069c0.379,0.069 0.775,0.138 1.172,0.172z"/>
   <path id="svg_19" fill="#DADDE0" d="m217.516,364.782c0.379,0.121 0.759,0.224 1.138,0.328c-0.155,-0.034 -0.31,-0.069 -0.465,-0.103c-0.069,-0.017 -0.138,-0.034 -0.19,-0.069c-0.156,-0.035 -0.328,-0.087 -0.483,-0.156z"/>
  </g>
  <g id="svg_20">
   <path id="svg_21" fill="#FFFFFF" d="m218.188,365.006c0.155,0.034 0.31,0.069 0.465,0.103c-0.155,-0.017 -0.31,-0.051 -0.465,-0.103z"/>
   <path id="svg_22" fill="#FFFFFF" d="m217.516,364.782c0.155,0.069 0.328,0.121 0.483,0.155c-0.259,-0.052 -0.517,-0.138 -0.776,-0.241c0.103,0.034 0.189,0.069 0.293,0.086z"/>
  </g>
  <path id="svg_23" fill="#DADDE0" d="m217.516,364.782c-0.103,-0.017 -0.19,-0.052 -0.293,-0.086c-0.017,0.017 -0.052,0 -0.069,-0.017l0,-0.034c0.12,0.068 0.241,0.102 0.362,0.137z"/>
  <path id="svg_24" fill="#DADDE0" d="m217.516,364.782c-0.103,-0.017 -0.19,-0.052 -0.293,-0.086c-0.017,0.017 -0.052,0 -0.069,-0.017l0,-0.034c0.12,0.068 0.241,0.102 0.362,0.137z"/>
  <path id="svg_25" fill="#D1D1D1" d="m216.343,331.511l0.81,33.133c-0.276,-0.086 -0.552,-0.19 -0.81,-0.31l0,-32.823z"/>
  <polygon id="svg_26" fill="#DADDE0" points="216.343,291.309 216.343,331.511 215.343,290.585 "/>
  <path id="svg_27" fill="#ADBCC9" d="m350.118,182.065l-124.5,110.089c-1.241,1.103 -2.034,2.62 -2.207,4.275l-4.474,67.1c-0.172,1.396 -2.103,1.586 -2.517,0.241l-20.04,-88.045c-0.914,-2.913 0.276,-6.068 2.862,-7.671l147.015,-91.177c3.379,-2.104 6.844,2.551 3.861,5.188z"/>
  <g id="svg_28"/>
  <g id="svg_29"/>
  <g id="svg_30"/>
  <g id="svg_31"/>
  <g id="svg_32"/>
  <g id="svg_33"/>
  <g id="svg_34"/>
  <g id="svg_35"/>
  <g id="svg_36"/>
  <g id="svg_37"/>
  <g id="svg_38"/>
  <g id="svg_39"/>
  <g id="svg_40"/>
  <g id="svg_41"/>
  <g id="svg_42"/>
  <text stroke="null" transform="matrix(7.957403712628314,0,0,6.096997430557099,-2435.893415750614,-614.3064275214334) " xml:space="preserve" text-anchor="start" font-family="Helvetica, Arial, sans-serif" font-size="24" id="svg_45" y="180.038587" x="320.333797" stroke-opacity="null" stroke-width="0" fill="#000000">bot</text>
  <text stroke="#000" transform="matrix(7.721702247958143,0,0,5.59895985251748,-2790.7262187472184,-2111.040722188852) " xml:space="preserve" text-anchor="start" font-family="Helvetica, Arial, sans-serif" font-size="24" id="svg_43" y="462.52799" x="376.446624" stroke-width="0" fill="#ffffff">bot</text>
 </g>
</svg>